<?xml version="1.0" encoding="utf-8"?>
<!-- Generator: Adobe Illustrator 23.0.1, SVG Export Plug-In . SVG Version: 6.00 Build 0)  -->
<svg version="1.1" id="Layer_1" xmlns="http://www.w3.org/2000/svg" xmlns:xlink="http://www.w3.org/1999/xlink" x="0px" y="0px"
	 viewBox="0 0 1366 768" style="enable-background:new 0 0 1366 768;" xml:space="preserve">
<style type="text/css">
	.st0{fill:#231F20;}
	.st1{fill:#FFFFFF;}
	.st2{font-family:'BalboaPlus-Fill';}
	.st3{font-size:438.8143px;}
	.st4{font-size:367.8255px;}
</style>
<path class="st0" d="M347.06,143.69c61.89-39.73,118.88-54.93,158.36-65.45c22.92-6.11,126.73-32.46,265.61-15.8
	C842.4,71,940.66,82.79,1041.77,150.5c31.7,21.23,98.78,67.29,144.78,154.09c18.99,35.83,49.37,93.16,39.46,167.08
	c-2.8,20.93-10.74,74.39-54.21,117.24c-38.67,38.11-84.44,47.12-112.59,52.27c-65.72,12.02-121.12-3.27-229.24-34.33
	c-86.24-24.78-98.02-36.11-147.3-38.11c-19.86-0.81-73.42-2.45-133.92,21.23c-30.77,12.05-28.35,16.95-65.84,33.84
	c-40.49,18.24-83.37,37.55-136.83,36.94c-18.87-0.21-84.74-1.94-139.64-50.23c-44.49-39.14-59.14-88.96-63.71-109.29
	C111.82,363.79,235.83,215.1,347.06,143.69z"/>
<g>
	<path class="st1" d="M557.54,601.79l-40.81,2.9l-9.53-134.25l-23.49,1.67c3.74,51,7.48,102,11.23,153.01
		c-13.31,4.44-26.63,8.88-39.94,13.31c-8.05-111.07-16.1-222.14-24.15-333.21c12.46-18.21,24.92-36.42,37.38-54.62
		c4.15,59.62,8.31,119.25,12.46,178.87l23.49-1.67c-5.26-74.23-10.52-148.45-15.79-222.68c11.91-26.01,23.81-52.03,35.72-78.04
		C535.25,285.31,546.4,443.55,557.54,601.79z"/>
</g>
<g>
	<path class="st1" d="M619.07,578.6l-42.75,2.89c-9.15-137.62-18.29-275.24-27.44-412.86c17.09,43.53,34.18,87.05,51.27,130.58
		L619.07,578.6z"/>
</g>
<text transform="matrix(0.9981 -0.0616 0.0616 0.9981 289.6211 661.3326)" class="st1 st2 st3">c</text>
<text transform="matrix(0.7655 0 0 1 611.6836 564.6416)" class="st1 st2 st4">c</text>
<g>
	<path class="st1" d="M896.01,612.89l-8.46,0.03l-4.74-12.39c-6.54,12.06-14.75,16.97-29.32,17.02
		c-21.15,0.07-34.85-19.06-34.98-57.79l-0.59-175.99c-0.14-42.87,14.82-64.36,38.09-64.43c21.39-0.07,34.83,13.42,35,64.56
		c0.05,13.91-0.61,27.08-1.52,36.86l-23.75-2.93c0.68-8.28,1.36-15.8,1.31-28.58c-0.09-27.45-3.87-31.58-9.04-31.56
		c-7.05,0.02-8.91,6.05-8.87,19.21l0.63,186.52c0.04,10.91,2.64,16.54,8.75,16.52c4.94-0.02,7.5-5.67,7.46-16.57l-0.3-88.75
		l29.85-0.1L896.01,612.89z"/>
</g>
<g>
	<path class="st1" d="M995.53,594.89c0,38.1-18.69,51.41-40.88,51.41c-22.68,0-41.88-14.21-41.88-51.41v-137
		c0-37.8,19.44-51.41,41.88-51.41c22.43,0,40.88,13.31,40.88,51.41V594.89z M962.63,450.03c0-9.07-4.24-12.7-8.23-12.7
		c-4.98,0-8.48,3.63-8.48,12.7v152.42c0,8.77,3.24,12.7,8.73,12.7c4.98,0,7.98-3.63,7.98-12.4V450.03z"/>
</g>
<g>
	<path class="st1" d="M817.13,606.21c-10.65-3.55-21.3-7.1-31.95-10.65c-2.25-34.97-4.5-69.94-6.75-104.91h-22.19
		c-3.59,30.31-7.17,60.61-10.76,90.92c-11.19-0.62-22.39-1.24-33.58-1.85c15.46-116.07,30.93-232.14,46.39-348.21
		c7.98,10.95,15.96,21.89,23.93,32.84C793.86,378.3,805.49,492.26,817.13,606.21z M774.78,460.61l-6.74-85.93l-8.71,85.93H774.78z"
		/>
</g>
</svg>
