<?xml version="1.0" encoding="utf-8"?>
<!-- Generator: Adobe Illustrator 23.0.1, SVG Export Plug-In . SVG Version: 6.00 Build 0)  -->
<svg version="1.1" id="Layer_1" xmlns="http://www.w3.org/2000/svg" xmlns:xlink="http://www.w3.org/1999/xlink" x="0px" y="0px"
	 viewBox="0 0 1366 768" style="enable-background:new 0 0 1366 768;" xml:space="preserve">
<style type="text/css">
	.st0{fill:#231F20;}
	.st1{fill:#FFFFFF;}
	.st2{font-family:'BalboaPlus-Fill';}
	.st3{font-size:235.5358px;}
	.st4{font-size:197.4322px;}
</style>
<path class="st0" d="M534.18,281.68c33.22-21.32,63.81-29.48,85-35.13c12.3-3.28,68.02-17.42,142.57-8.48
	c38.31,4.6,91.05,10.92,145.32,47.26c17.02,11.39,53.02,36.12,77.71,82.71c10.19,19.23,26.5,50.01,21.18,89.68
	c-1.51,11.23-5.76,39.93-29.1,62.93c-20.75,20.46-45.32,25.29-60.43,28.05c-35.27,6.45-65.01-1.75-123.05-18.43
	c-46.29-13.3-52.61-19.38-79.06-20.46c-10.66-0.43-39.41-1.32-71.88,11.4c-16.52,6.47-15.22,9.1-35.34,18.16
	c-21.73,9.79-44.75,20.16-73.44,19.83c-10.13-0.12-45.49-1.04-74.95-26.96c-23.88-21.01-31.74-47.75-34.2-58.66
	C407.92,399.81,474.48,320,534.18,281.68z"/>
<g>
	<path class="st1" d="M647.16,522.56l-21.9,1.56l-5.12-72.06l-12.61,0.9c2.01,27.38,4.02,54.75,6.03,82.13
		c-7.15,2.38-14.29,4.76-21.44,7.15c-4.32-59.62-8.64-119.24-12.96-178.85c6.69-9.77,13.37-19.55,20.06-29.32
		c2.23,32,4.46,64.01,6.69,96.01l12.61-0.9c-2.82-39.84-5.65-79.68-8.47-119.52c6.39-13.96,12.78-27.93,19.17-41.89
		C635.19,352.69,641.17,437.63,647.16,522.56z"/>
</g>
<g>
	<path class="st1" d="M680.18,511.12l-22.95,1.55c-4.91-73.87-9.82-147.74-14.73-221.61c9.17,23.36,18.35,46.73,27.52,70.09
		L680.18,511.12z"/>
</g>
<text transform="matrix(0.9981 -0.0616 0.0616 0.9981 503.3496 559.5212)" class="st1 st2 st3">c</text>
<text transform="matrix(0.7655 0 0 1 676.2178 507.6211)" class="st1 st2 st4">c</text>
<g>
	<path class="st1" d="M828.83,533.52l-4.54,0.02l-2.55-6.65c-3.51,6.47-7.92,9.11-15.74,9.14c-11.35,0.04-18.7-10.23-18.78-31.02
		l-0.32-94.47c-0.08-23.01,7.96-34.54,20.45-34.59c11.48-0.04,18.69,7.2,18.79,34.66c0.03,7.47-0.33,14.53-0.82,19.78l-12.75-1.57
		c0.36-4.44,0.73-8.48,0.71-15.34c-0.05-14.74-2.08-16.95-4.85-16.94c-3.78,0.01-4.78,3.25-4.76,10.31l0.34,100.12
		c0.02,5.85,1.42,8.88,4.7,8.87c2.65-0.01,4.03-3.04,4.01-8.9l-0.16-47.64l16.02-0.05L828.83,533.52z"/>
</g>
<g>
	<path class="st1" d="M882.25,523.86c0,20.45-10.03,27.6-21.94,27.6c-12.17,0-22.48-7.63-22.48-27.6v-73.53
		c0-20.29,10.44-27.6,22.48-27.6c12.04,0,21.94,7.14,21.94,27.6V523.86z M864.59,446.1c0-4.87-2.27-6.82-4.42-6.82
		c-2.68,0-4.55,1.95-4.55,6.82v81.81c0,4.71,1.74,6.82,4.68,6.82c2.68,0,4.28-1.95,4.28-6.66V446.1z"/>
</g>
<g>
	<path class="st1" d="M786.49,527.94c-5.72-1.91-11.43-3.81-17.15-5.72c-1.21-18.77-2.41-37.54-3.62-56.31h-11.91
		c-1.92,16.27-3.85,32.53-5.77,48.8c-6.01-0.33-12.02-0.66-18.03-1c8.3-62.3,16.6-124.6,24.9-186.9
		c4.28,5.88,8.56,11.75,12.85,17.63C774,405.6,780.25,466.77,786.49,527.94z M763.76,449.78l-3.62-46.13l-4.67,46.13H763.76z"/>
</g>
</svg>
